<svg width="43" height="43" viewBox="0 0 43 43" fill="none" xmlns="http://www.w3.org/2000/svg">
<path d="M31.2708 14.998C29.5176 14.9972 27.7915 15.4401 26.2468 16.2871C26.1059 15.9079 25.8553 15.5815 25.5284 15.3513C25.2015 15.121 24.8137 14.9978 24.4166 14.998H16.5833C16.3261 14.9979 16.0714 15.0495 15.8337 15.1499C15.596 15.2504 15.3801 15.3977 15.1982 15.5835C15.0164 15.7692 14.8721 15.9897 14.7737 16.2325C14.6754 16.4752 14.6248 16.7353 14.625 16.998V40.998C14.6248 41.2607 14.6754 41.5208 14.7737 41.7635C14.8721 42.0063 15.0163 42.2268 15.1982 42.4126C15.3801 42.5983 15.596 42.7456 15.8337 42.8461C16.0714 42.9465 16.3261 42.9982 16.5833 42.998H24.4166C24.6739 42.9982 24.9286 42.9465 25.1662 42.8461C25.4039 42.7456 25.6198 42.5983 25.8017 42.4126C25.9836 42.2268 26.1278 42.0063 26.2262 41.7635C26.3246 41.5208 26.3751 41.2607 26.375 40.998V29.998C26.375 29.4676 26.5813 28.9589 26.9486 28.5838C27.3158 28.2087 27.8139 27.998 28.3333 27.998C28.8527 27.998 29.3508 28.2087 29.7181 28.5838C30.0853 28.9589 30.2916 29.4676 30.2916 29.998V40.998C30.2915 41.2607 30.342 41.5208 30.4404 41.7635C30.5388 42.0063 30.683 42.2268 30.8649 42.4126C31.0468 42.5983 31.2627 42.7456 31.5004 42.8461C31.738 42.9465 31.9928 42.9982 32.25 42.998H40.0833C40.3405 42.9982 40.5952 42.9465 40.8329 42.8461C41.0706 42.7456 41.2865 42.5983 41.4684 42.4126C41.6503 42.2268 41.7945 42.0063 41.8929 41.7635C41.9912 41.5208 42.0418 41.2607 42.0416 40.998V25.998C42.0381 23.0817 40.9022 20.2859 38.883 18.2238C36.8639 16.1617 34.1263 15.0016 31.2708 14.998V14.998ZM38.125 38.998H34.2083V29.998C34.2083 28.4067 33.5893 26.8806 32.4876 25.7554C31.3858 24.6301 29.8915 23.998 28.3333 23.998C26.7752 23.998 25.2808 24.6301 24.1791 25.7554C23.0773 26.8806 22.4583 28.4067 22.4583 29.998V38.998H18.5416V18.998H22.4583V20.4043C22.4585 20.8187 22.5848 21.2228 22.8195 21.5608C23.0543 21.8988 23.386 22.154 23.7689 22.2912C24.1518 22.4284 24.5669 22.4408 24.957 22.3267C25.3471 22.2126 25.6929 21.9777 25.9466 21.6543C26.8254 20.5143 28.0309 19.6831 29.3947 19.2767C30.7585 18.8703 32.2125 18.909 33.5537 19.3874C34.8949 19.8658 36.0563 20.76 36.8759 21.9451C37.6954 23.1302 38.1321 24.5471 38.125 25.998V38.998ZM10.7083 14.998H2.87497C2.61776 14.9979 2.36304 15.0495 2.12538 15.1499C1.88772 15.2504 1.67177 15.3977 1.4899 15.5835C1.30802 15.7692 1.16377 15.9897 1.06541 16.2325C0.967047 16.4752 0.916493 16.7353 0.91664 16.998V40.998C0.916491 41.2607 0.967043 41.5208 1.06541 41.7635C1.16377 42.0063 1.30801 42.2268 1.48989 42.4126C1.67177 42.5983 1.88771 42.7456 2.12538 42.8461C2.36304 42.9465 2.61776 42.9982 2.87497 42.998H10.7083C10.9655 42.9982 11.2202 42.9465 11.4579 42.8461C11.6956 42.7456 11.9115 42.5983 12.0934 42.4126C12.2753 42.2268 12.4195 42.0063 12.5179 41.7635C12.6162 41.5208 12.6668 41.2607 12.6666 40.998V16.998C12.6668 16.7353 12.6162 16.4752 12.5179 16.2325C12.4195 15.9897 12.2753 15.7692 12.0934 15.5835C11.9115 15.3977 11.6956 15.2504 11.4579 15.1499C11.2202 15.0495 10.9655 14.9979 10.7083 14.998V14.998ZM8.74997 38.998H4.83331V18.998H8.74997V38.998ZM6.82033 0.0840017C5.96329 0.0316085 5.10476 0.157796 4.29697 0.454891C3.48918 0.751986 2.749 1.21378 2.12144 1.81219C1.49388 2.41059 0.992066 3.13311 0.646505 3.9358C0.300943 4.73849 0.11886 5.60457 0.111328 6.48138C0.103795 7.3582 0.270971 8.22741 0.602689 9.03617C0.934407 9.84492 1.42374 10.5763 2.04091 11.1859C2.65809 11.7954 3.39023 12.2704 4.19279 12.582C4.99536 12.8935 5.85158 13.035 6.70939 12.998H6.76485C7.62416 13.0501 8.48486 12.9228 9.29434 12.6237C10.1038 12.3246 10.8451 11.8601 11.4729 11.2586C12.1007 10.6571 12.6017 9.93115 12.9455 9.12516C13.2893 8.31917 13.4686 7.45005 13.4723 6.57092C13.4761 5.69179 13.3043 4.8211 12.9675 4.01206C12.6306 3.20302 12.1358 2.47262 11.5132 1.86549C10.8906 1.25836 10.1534 0.78725 9.34649 0.480945C8.5396 0.17464 7.68004 0.0395749 6.82031 0.0840017H6.82033ZM6.76487 8.998H6.70939C6.37073 9.04 6.02719 9.00756 5.70181 8.90286C5.37643 8.79816 5.07673 8.62361 4.82282 8.39093C4.5689 8.15825 4.36663 7.87281 4.22958 7.55375C4.09253 7.2347 4.02386 6.8894 4.02818 6.54102C4.02818 5.04882 5.124 4.08398 6.82033 4.08398C7.16245 4.0374 7.51037 4.06624 7.84065 4.16855C8.17094 4.27086 8.47592 4.44426 8.73506 4.67709C8.9942 4.90991 9.20148 5.19674 9.34293 5.51827C9.48439 5.83979 9.55674 6.18854 9.5551 6.54102C9.5551 8.0332 8.45928 8.998 6.76487 8.998Z" fill="#061E3B"/>
</svg>
