<svg width="116" height="116" viewBox="0 0 116 116" fill="none" xmlns="http://www.w3.org/2000/svg">
<path d="M13.0833 0.25C6.025 0.25 0.25 6.025 0.25 13.0833V102.917C0.25 109.975 6.025 115.75 13.0833 115.75H102.917C109.975 115.75 115.75 109.975 115.75 102.917V13.0833C115.75 6.025 109.975 0.25 102.917 0.25H13.0833ZM25.2148 32.3333H42.5348C57.46 32.3333 59.2407 46.068 59.2407 49.0518C59.2343 60.9868 50.888 65.1561 43.1239 65.1561H35.9552V83.0651H25.2148V32.3333ZM35.9552 40.6925V56.8094H43.1239C47.8979 56.8094 49.0894 53.229 49.0894 49.0518C49.0958 44.8681 47.3075 40.6925 43.1239 40.6925H35.9552ZM78.3403 44.8659C87.2916 44.8659 92.0635 50.2452 92.0635 56.8094H81.9246C81.9246 53.8257 80.7273 52.0345 78.3403 52.0345C76.5501 52.0345 74.756 53.2318 74.756 55.6188C74.756 61.5863 92.076 59.7914 92.076 72.9263C92.0696 81.8775 83.1143 83.6667 78.3403 83.6667C68.7923 83.6667 64.0156 77.1016 64.0156 71.1341H73.5654C73.5654 75.9081 77.1468 76.5106 78.3403 76.5106C80.7273 76.5106 82.5137 75.3133 82.5137 72.9263C82.5137 67.5555 65.1937 68.1493 65.1937 56.2078C65.1937 47.2566 73.5599 44.8659 78.3403 44.8659Z" fill="#748941"/>
</svg>
