<svg width="116" height="116" viewBox="0 0 116 116" fill="none" xmlns="http://www.w3.org/2000/svg">
<path d="M78.7322 53.0656C76.7752 53.0656 75.3507 53.8548 74.4459 55.4333C73.5412 57.0118 73.092 59.8223 73.092 63.8584V66.6753C73.092 70.6857 73.5155 73.4898 74.3689 75.0812C75.2223 76.6725 76.6597 77.4682 78.6938 77.4682C80.7984 77.4682 82.3897 76.5313 83.4677 74.6512V56.075C82.4218 54.073 80.8433 53.0656 78.7322 53.0656ZM102.917 0.25H13.0833C5.99933 0.25 0.25 5.99292 0.25 13.0833V102.917C0.25 110.007 5.99933 115.75 13.0833 115.75H102.917C110.001 115.75 115.75 110.007 115.75 102.917V13.0833C115.75 5.99292 110.001 0.25 102.917 0.25ZM46.9248 85.5917L39.4045 66.4572L31.9291 85.5917H19.1022L32.2627 57.9936L19.3653 30.8511H32.0382L39.4045 49.6519L46.7708 30.8511H59.4438L46.5847 57.9936L59.7453 85.5917H46.9248ZM94.19 85.5917H84.5265L84.0388 81.4529C81.8572 84.7126 79.0531 86.3424 75.6137 86.3424C71.3531 86.3424 68.0998 84.7126 65.854 81.4529C63.6082 78.1932 62.466 73.4064 62.4147 67.0924V64.0124C62.4147 57.3455 63.544 52.3726 65.7962 49.0872C68.0485 45.8019 71.3338 44.1593 75.6458 44.1593C78.7772 44.1593 81.3887 45.5132 83.4677 48.221V27.8417H94.1836V85.5917H94.19Z" fill="#748941"/>
</svg>
