<svg width="44" height="44" viewBox="0 0 44 44" fill="none" xmlns="http://www.w3.org/2000/svg">
<path d="M33.2367 7.49667C32.7224 7.49667 32.2198 7.64915 31.7922 7.93485C31.3646 8.22054 31.0314 8.6266 30.8346 9.10169C30.6378 9.57678 30.5863 10.0995 30.6866 10.6039C30.7869 11.1083 31.0346 11.5715 31.3982 11.9351C31.7618 12.2988 32.2251 12.5464 32.7294 12.6467C33.2338 12.747 33.7566 12.6955 34.2316 12.4988C34.7067 12.302 35.1128 11.9687 35.3985 11.5411C35.6842 11.1136 35.8367 10.6109 35.8367 10.0967C35.8367 9.4071 35.5627 8.74578 35.0751 8.25819C34.5876 7.77059 33.9262 7.49667 33.2367 7.49667V7.49667ZM43.2033 12.74C43.1612 10.9423 42.8245 9.16371 42.2067 7.475C41.6558 6.03012 40.7983 4.72177 39.6933 3.64C38.6204 2.52942 37.309 1.67738 35.8583 1.14833C34.1741 0.511682 32.3935 0.167288 30.5933 0.13C28.2967 -1.21072e-07 27.56 0 21.6667 0C15.7733 0 15.0367 -1.21072e-07 12.74 0.13C10.9398 0.167288 9.15924 0.511682 7.475 1.14833C6.02697 1.68274 4.71669 2.53405 3.64 3.64C2.52942 4.71288 1.67738 6.02429 1.14833 7.475C0.511682 9.15924 0.167288 10.9398 0.13 12.74C-1.21072e-07 15.0367 0 15.7733 0 21.6667C0 27.56 -1.21072e-07 28.2967 0.13 30.5933C0.167288 32.3935 0.511682 34.1741 1.14833 35.8583C1.67738 37.309 2.52942 38.6204 3.64 39.6933C4.71669 40.7993 6.02697 41.6506 7.475 42.185C9.15924 42.8216 10.9398 43.166 12.74 43.2033C15.0367 43.3333 15.7733 43.3333 21.6667 43.3333C27.56 43.3333 28.2967 43.3333 30.5933 43.2033C32.3935 43.166 34.1741 42.8216 35.8583 42.185C37.309 41.6559 38.6204 40.8039 39.6933 39.6933C40.8032 38.6156 41.6614 37.3061 42.2067 35.8583C42.8245 34.1696 43.1612 32.391 43.2033 30.5933C43.2033 28.2967 43.3333 27.56 43.3333 21.6667C43.3333 15.7733 43.3333 15.0367 43.2033 12.74V12.74ZM39.3033 30.3333C39.2876 31.7087 39.0385 33.0714 38.5667 34.3633C38.2207 35.3063 37.6651 36.1582 36.9417 36.855C36.2389 37.5711 35.3887 38.1256 34.45 38.48C33.158 38.9518 31.7953 39.2009 30.42 39.2167C28.2533 39.325 27.4517 39.3467 21.7533 39.3467C16.055 39.3467 15.2533 39.3467 13.0867 39.2167C11.6586 39.2434 10.2366 39.0235 8.88333 38.5667C7.98586 38.1942 7.1746 37.641 6.5 36.9417C5.78086 36.2456 5.23216 35.3929 4.89667 34.45C4.36769 33.1395 4.07429 31.7459 4.03 30.3333C4.03 28.1667 3.9 27.365 3.9 21.6667C3.9 15.9683 3.9 15.1667 4.03 13C4.03971 11.594 4.29639 10.2005 4.78833 8.88333C5.16977 7.96881 5.75524 7.15359 6.5 6.5C7.15826 5.75503 7.97179 5.16337 8.88333 4.76667C10.204 4.29009 11.596 4.04101 13 4.03C15.1667 4.03 15.9683 3.9 21.6667 3.9C27.365 3.9 28.1667 3.9 30.3333 4.03C31.7087 4.04577 33.0714 4.29487 34.3633 4.76667C35.3479 5.13208 36.2316 5.72617 36.9417 6.5C37.6517 7.16555 38.2065 7.97925 38.5667 8.88333C39.0482 10.2027 39.2975 11.5955 39.3033 13C39.4117 15.1667 39.4333 15.9683 39.4333 21.6667C39.4333 27.365 39.4117 28.1667 39.3033 30.3333ZM21.6667 10.5517C19.4693 10.5559 17.3224 11.2115 15.4974 12.4354C13.6724 13.6593 12.2512 15.3968 11.4132 17.4281C10.5753 19.4595 10.3582 21.6937 10.7896 23.8483C11.2209 26.003 12.2812 27.9815 13.8365 29.5338C15.3918 31.0861 17.3724 32.1425 19.5279 32.5697C21.6834 32.9968 23.9171 32.7754 25.9468 31.9335C27.9766 31.0916 29.7112 29.6669 30.9316 27.8396C32.152 26.0122 32.8033 23.8641 32.8033 21.6667C32.8062 20.2044 32.5199 18.756 31.961 17.4047C31.4021 16.0535 30.5815 14.8261 29.5466 13.7931C28.5116 12.7601 27.2826 11.942 25.9302 11.3857C24.5779 10.8294 23.1289 10.546 21.6667 10.5517V10.5517ZM21.6667 28.8817C20.2397 28.8817 18.8447 28.4585 17.6582 27.6657C16.4717 26.8729 15.547 25.7461 15.0009 24.4277C14.4548 23.1094 14.3119 21.6587 14.5903 20.2591C14.8687 18.8595 15.5559 17.5739 16.5649 16.5649C17.5739 15.5559 18.8595 14.8687 20.2591 14.5903C21.6587 14.3119 23.1094 14.4548 24.4277 15.0009C25.7461 15.547 26.8729 16.4717 27.6657 17.6582C28.4585 18.8447 28.8817 20.2397 28.8817 21.6667C28.8817 22.6142 28.695 23.5524 28.3325 24.4277C27.9699 25.3031 27.4384 26.0985 26.7684 26.7684C26.0985 27.4384 25.3031 27.9699 24.4277 28.3325C23.5524 28.695 22.6142 28.8817 21.6667 28.8817V28.8817Z" fill="#061E3B"/>
</svg>
