<svg width="40" height="43" viewBox="0 0 40 43" fill="none" xmlns="http://www.w3.org/2000/svg">
<path d="M16.6663 38.1148C16.6663 37.8283 16.6032 37.5452 16.4814 37.2857C16.3597 37.0263 16.1823 36.7967 15.9619 36.6133C15.7415 36.43 15.4834 36.2973 15.2059 36.2247C14.9284 36.1521 14.6383 36.1414 14.3563 36.1933C11.796 36.6627 8.56335 36.7333 7.70385 34.3213C6.9544 32.4533 5.71299 30.8227 4.11122 29.6023C3.99693 29.5402 3.88801 29.4688 3.78558 29.3886C3.64539 29.0192 3.3964 28.7009 3.07144 28.4757C2.74649 28.2505 2.36084 28.129 1.96537 28.1273H1.95583C1.43871 28.1271 0.942583 28.3316 0.576033 28.696C0.209483 29.0605 0.00237075 29.5551 2.74222e-05 30.0718C-0.00761976 31.6651 1.58618 32.686 2.23277 33.0314C2.99523 33.7968 3.608 34.6976 4.0396 35.6877C4.75202 37.6875 6.82241 40.7215 12.7739 40.3304C12.7758 40.3991 12.7777 40.464 12.7786 40.5231L12.7872 41.046C12.7872 41.5642 12.9933 42.0612 13.3601 42.4277C13.7268 42.7941 14.2243 43 14.743 43C15.2617 43 15.7592 42.7941 16.126 42.4277C16.4928 42.0612 16.6988 41.5642 16.6988 41.046L16.6893 40.4239C16.6797 40.0536 16.6663 39.5174 16.6663 38.1148ZM37.5289 8.55835C37.591 8.31409 37.6521 8.04313 37.7056 7.73781C38.0219 5.56023 37.7461 3.33773 36.9072 1.30323C36.8013 1.038 36.6387 0.799106 36.4307 0.603305C36.2226 0.407504 35.9743 0.259532 35.703 0.169761C35.0067 -0.0649557 32.436 -0.526749 27.5197 2.61228C23.4332 1.65148 19.1791 1.65148 15.0926 2.61228C10.1964 -0.480771 7.63892 -0.0610477 6.94942 0.160304C6.67143 0.246438 6.41625 0.393626 6.20259 0.591083C5.98893 0.788539 5.8222 1.03126 5.71462 1.30145C4.85857 3.37502 4.58582 5.64284 4.92581 7.86C4.97357 8.10998 5.02513 8.34088 5.07862 8.55268C3.45837 10.7088 2.59536 13.3388 2.62336 16.0348C2.61808 16.6363 2.64582 17.2377 2.70645 17.8362C3.35968 26.8296 9.22709 29.5298 13.3153 30.4572C13.2303 30.7014 13.153 30.9628 13.0842 31.2395C12.9617 31.7423 13.0437 32.2731 13.3123 32.7155C13.5808 33.158 14.0141 33.476 14.517 33.5997C15.0199 33.7235 15.5514 33.643 15.9949 33.3758C16.4385 33.1087 16.7579 32.6767 16.8831 32.1746C17.0076 31.5235 17.3265 30.9254 17.798 30.4591C18.0831 30.2097 18.2895 29.883 18.3921 29.5186C18.4947 29.1542 18.4891 28.7679 18.376 28.4066C18.2629 28.0453 18.0471 27.7247 17.755 27.4837C17.4628 27.2426 17.1068 27.0917 16.7303 27.0491C9.97481 26.2782 7.04205 23.5284 6.60086 17.4774C6.55198 16.9982 6.52999 16.5166 6.53497 16.0348C6.50359 14.1134 7.13897 12.2403 8.33319 10.7338C8.45318 10.5767 8.58099 10.4258 8.71613 10.2815C8.95559 10.0138 9.11658 9.6854 9.18144 9.33228C9.24631 8.97916 9.21253 8.61502 9.08382 8.27982C8.95188 7.92718 8.85028 7.56393 8.78015 7.19403C8.62081 6.14221 8.67307 5.06921 8.93387 4.03782C10.6337 4.51748 12.2335 5.29824 13.6571 6.34294C13.8926 6.4996 14.1589 6.60385 14.4382 6.64863C14.7175 6.69341 15.0032 6.67767 15.2758 6.60247C19.2287 5.53069 23.3962 5.53136 27.3487 6.60442C27.6228 6.67954 27.91 6.69438 28.1904 6.64793C28.4709 6.60149 28.7379 6.49485 28.9731 6.33538C30.3901 5.28634 31.9832 4.49859 33.6774 4.00925C33.937 5.01587 33.9951 6.06382 33.8483 7.09293C33.7775 7.49846 33.6668 7.89603 33.5179 8.27986C33.3892 8.61506 33.3554 8.9792 33.4202 9.33232C33.4851 9.68544 33.6461 10.0139 33.8856 10.2816C34.0364 10.4514 34.1873 10.6346 34.3229 10.8063C35.5087 12.2873 36.1334 14.1389 36.0868 16.0348C36.0904 16.5421 36.0658 17.0492 36.0133 17.5537C35.5826 23.5246 32.6384 26.2762 25.8514 27.0491C25.4748 27.0919 25.1188 27.2431 24.8266 27.4844C24.5345 27.7256 24.3188 28.0465 24.2058 28.4079C24.0928 28.7694 24.0874 29.1558 24.1901 29.5203C24.2929 29.8848 24.4994 30.2116 24.7846 30.461C25.2709 30.9397 25.5906 31.5618 25.6967 32.2356C25.8288 32.7587 25.8895 33.2972 25.8772 33.8366V38.3973C25.858 39.6624 25.858 40.6108 25.858 41.0459C25.858 41.5641 26.0641 42.0611 26.4308 42.4276C26.7976 42.794 27.2951 42.9999 27.8138 42.9999C28.3325 42.9999 28.83 42.794 29.1968 42.4276C29.5636 42.0611 29.7696 41.5641 29.7696 41.0459C29.7696 40.6222 29.7696 39.6929 29.7887 38.4278V33.8366C29.8045 32.9726 29.7026 32.1105 29.486 31.2739C29.424 30.9992 29.3482 30.7279 29.2587 30.461C32.234 29.9672 34.9373 28.4346 36.8875 26.136C38.8378 23.8374 39.9083 20.922 39.9086 17.9087C39.9731 17.2862 40.0031 16.6606 39.9984 16.0348C40.0419 13.3359 39.1716 10.7014 37.5289 8.55838L37.5289 8.55835Z" fill="#061E3B"/>
</svg>
