<svg width="118" height="118" viewBox="0 0 118 118" fill="none" xmlns="http://www.w3.org/2000/svg">
<path d="M12.3334 0.666626C5.88485 0.666626 0.666748 5.88472 0.666748 12.3333V82.3333C0.666748 88.7819 5.88485 94 12.3334 94H47.3334V99.8333H24.0001L6.50008 117.333H111.5L94.0001 99.8333H70.6668V94H105.667C112.115 94 117.333 88.7819 117.333 82.3333V12.3333C117.333 5.88472 112.115 0.666626 105.667 0.666626H12.3334ZM12.3334 12.3333H105.667V82.3333H12.3334V12.3333ZM45.8751 24L24.0001 45.875L45.8751 67.75L53.1668 60.4583L38.5834 45.875L53.1668 31.2916L45.8751 24ZM72.1251 24L64.8334 31.2916L79.4168 45.875L64.8334 60.4583L72.1251 67.75L94.0001 45.875L72.1251 24Z" fill="#748941"/>
</svg>
