<svg width="116" height="116" viewBox="0 0 116 116" fill="none" xmlns="http://www.w3.org/2000/svg">
<path d="M13.0833 0.25C6.01498 0.25 0.25 6.01498 0.25 13.0833V102.917C0.25 109.985 6.01498 115.75 13.0833 115.75H102.917C109.985 115.75 115.75 109.985 115.75 102.917V13.0833C115.75 6.01498 109.985 0.25 102.917 0.25H13.0833ZM80.4583 29.125C83.6667 29.125 86.2734 31.7318 86.2734 34.9401C86.2734 38.1484 83.6667 40.7552 80.4583 40.7552C77.25 40.7552 74.6432 38.1484 74.6432 34.9401C74.6432 31.7318 77.25 29.125 80.4583 29.125ZM43.1615 31.7318H53.5885L70.8333 86.2734H58.6016L55.3932 75.2448H40.7552L37.5469 86.2734H25.9167L43.1615 31.7318ZM75.2448 45.7682H86.2734V86.2734H75.2448V45.7682ZM48.375 46.3698L43.1615 65.6198H53.5885L48.375 46.3698Z" fill="#748941"/>
</svg>
